<svg width="160" height="160" viewBox="0 0 160 160" fill="none" xmlns="http://www.w3.org/2000/svg">
  <path d="M80 20C46.863 20 20 46.863 20 80C20 113.137 46.863 140 80 140C113.137 140 140 113.137 140 80C140 46.863 113.137 20 80 20Z" stroke="#DDDDDD" stroke-width="4" stroke-linecap="round" stroke-linejoin="round"/>
  <path d="M53 58C55.7614 58 58 55.7614 58 53C58 50.2386 55.7614 48 53 48C50.2386 48 48 50.2386 48 53C48 55.7614 50.2386 58 53 58Z" fill="#DDDDDD"/>
  <path d="M80 92C82.7614 92 85 89.7614 85 87C85 84.2386 82.7614 82 80 82C77.2386 82 75 84.2386 75 87C75 89.7614 77.2386 92 80 92Z" fill="#DDDDDD"/>
  <path d="M107 70C109.761 70 112 67.7614 112 65C112 62.2386 109.761 60 107 60C104.239 60 102 62.2386 102 65C102 67.7614 104.239 70 107 70Z" fill="#DDDDDD"/>
  <path d="M60 107C62.7614 107 65 104.761 65 102C65 99.2386 62.7614 97 60 97C57.2386 97 55 99.2386 55 102C55 104.761 57.2386 107 60 107Z" fill="#DDDDDD"/>
  <path d="M40 56L78 88" stroke="#DDDDDD" stroke-width="2" stroke-linecap="round"/>
  <path d="M78 88L110 62" stroke="#DDDDDD" stroke-width="2" stroke-linecap="round"/>
  <path d="M78 88L60 105" stroke="#DDDDDD" stroke-width="2" stroke-linecap="round"/>
  <path d="M80 132L80 102" stroke="#DDDDDD" stroke-width="2" stroke-linecap="round"/>
  <path d="M40 50L60 38" stroke="#DDDDDD" stroke-width="2" stroke-linecap="round"/>
  <path d="M125 78L110 62" stroke="#DDDDDD" stroke-width="2" stroke-linecap="round"/>
</svg> 